# xmcd CD database file
#
# Track frame offsets:
#	150
#	19253
#	46305
#	60922
#	73380
#	90300
#	110027
#	124275
#	136277
#	149661
#
# Disc length: 2185 seconds
#
# Revision: 0
# Processed by: cddbd v1.5PL3 Copyright (c) Steve Scherf et al.
# Submitted via: CDex 1.51
#
DISCID=9508870a
DTITLE=Norah Jones - Come Away With Me
DYEAR=2002
DGENRE=Jazz
TTITLE0=Don`t Know Why
TTITLE1=Seven Years
TTITLE2=Cold Cold Night
TTITLE3=Feelin` The Same Way
TTITLE4=Come Away With Me
TTITLE5=Shoot The Moon
TTITLE6=Turn Me On
TTITLE7=Lonestar
TTITLE8=I`ve Got To See You Again
TTITLE9=Painter Song
EXTD=YEAR: 2002
EXTT0=
EXTT1=
EXTT2=
EXTT3=
EXTT4=
EXTT5=
EXTT6=
EXTT7=
EXTT8=
EXTT9=
PLAYORDER=
